<?xml version="1.0" encoding="UTF-8"?>
<svg width="350" height="350" viewBox="0 0 350 350" xmlns="http://www.w3.org/2000/svg">
  <!-- Background -->
  <rect width="350" height="350" fill="#6E0101" fill-opacity="0.1" rx="15"/>
  
  <!-- Border -->
  <rect x="10" y="10" width="330" height="330" fill="none" stroke="#BEA282" stroke-width="2" rx="10" stroke-dasharray="5,5"/>
  
  <!-- Doctor Icon -->
  <g transform="translate(175, 120)">
    <!-- Head -->
    <circle cx="0" cy="0" r="25" fill="#BEA282" fill-opacity="0.8"/>
    
    <!-- Body -->
    <rect x="-30" y="20" width="60" height="80" fill="#BEA282" fill-opacity="0.6" rx="5"/>
    
    <!-- Stethoscope -->
    <path d="M -15 35 Q -25 25 -20 45 Q -15 55 -10 45 Q -5 35 -15 35" fill="none" stroke="#BEA282" stroke-width="2"/>
    <path d="M 15 35 Q 25 25 20 45 Q 15 55 10 45 Q 5 35 15 35" fill="none" stroke="#BEA282" stroke-width="2"/>
    <circle cx="0" cy="60" r="8" fill="none" stroke="#BEA282" stroke-width="2"/>
    
    <!-- Medical Cross -->
    <g transform="translate(0, 120)">
      <rect x="-8" y="-20" width="16" height="40" fill="#BEA282"/>
      <rect x="-20" y="-8" width="40" height="16" fill="#BEA282"/>
    </g>
  </g>
  
  <!-- Text -->
  <text x="175" y="280" text-anchor="middle" font-family="Montserrat, sans-serif" font-size="14" fill="#BEA282" opacity="0.9">
    Dra. Brenda Ueti
  </text>
  
  <!-- Subtitle -->
  <text x="175" y="300" text-anchor="middle" font-family="Montserrat, sans-serif" font-size="12" fill="#FEF3E7" opacity="0.7">
    Medicina Preventiva &amp; Estética
  </text>
  
  <!-- Decorative elements -->
  <circle cx="50" cy="50" r="3" fill="#C5A777" opacity="0.5"/>
  <circle cx="300" cy="50" r="3" fill="#C5A777" opacity="0.5"/>
  <circle cx="50" cy="300" r="3" fill="#C5A777" opacity="0.5"/>
  <circle cx="300" cy="300" r="3" fill="#C5A777" opacity="0.5"/>
</svg> 